<svg width="24" height="18" viewBox="-5.5 0 24 18" fill="none" xmlns="http://www.w3.org/2000/svg">
<path d="M10.2 7C9.4 5 10.2 1 6.6 1C3 1 3.8 5 3 6.6C2.2 8.2 1 9.4 1 11.8C1 15.4 4 17 6.6 17C9.2 17 12.2 15.4 12.2 11.8C12.2 9.8 11 9 10.2 7Z" fill="#59693C" stroke="black"/>
<path d="M9.00007 11.3999C9.00007 12.7254 7.92555 13.7999 6.60007 13.7999C5.27459 13.7999 4.20007 12.7254 4.20007 11.3999C4.20007 10.0744 5.27459 8.3999 6.60007 8.3999C7.92555 8.3999 9.00007 10.0744 9.00007 11.3999Z" fill="black" stroke="#F3F0E9"/>
</svg>
