<svg width="24" height="16" viewBox="-3.5 0 24 16" fill="none" xmlns="http://www.w3.org/2000/svg">
<path d="M1 12.4673H15.8908L14.0294 15.4454H2.86135L1 12.4673Z" stroke="black" stroke-linecap="round" stroke-linejoin="round"/>
<path d="M3.6059 10.2333V12.4669H13.2849V10.6055C13.2849 8.37191 12.1681 7.62737 12.1681 7.62737C12.9126 6.6967 13.2849 5.39376 12.1681 4.64922C11.0513 3.90468 10.1206 4.64922 9.56221 5.39376C9.56221 5.39376 3.6059 4.64922 3.6059 10.2333Z" fill="#59693C" stroke="black" stroke-linecap="round" stroke-linejoin="round"/>
<path d="M7.32854 8C7.32854 8 6.95627 8.18613 6.584 8.74454C6.21173 9.30294 6.21173 9.86135 6.21173 9.86135" stroke="#F3F0E9" stroke-linecap="round"/>
<path d="M14.0294 2.41602C13.8309 2.65427 12.7058 4.00438 12.1681 4.64963" stroke="black"/>
<path d="M13.2549 2.61284C13.6756 2.90819 14.256 2.80659 14.5514 2.38592C14.8467 1.96525 14.7451 1.3848 14.3244 1.08946C13.9038 0.794112 13.3233 0.895708 13.028 1.31638C12.7326 1.73705 12.8342 2.3175 13.2549 2.61284Z" fill="black"/>
<path d="M14.1688 3.25444C14.5894 3.54979 15.1699 3.44819 15.4652 3.02752C15.7606 2.60685 15.659 2.0264 15.2383 1.73106C14.8176 1.43571 14.2372 1.53731 13.9419 1.95798C13.6465 2.37865 13.7481 2.9591 14.1688 3.25444Z" fill="black"/>
</svg>
