<svg width="24" height="24" viewBox="-3.5 -3.5 24 24" fill="none" xmlns="http://www.w3.org/2000/svg">
<path d="M9 16V9" stroke="black" stroke-linecap="round" stroke-linejoin="round"/>
<path d="M15.9987 2.79943C15.6962 8.0374 12.4371 9.73123 9.77852 9.99658C9.34963 10.0394 9 9.67533 9 9.2311V5.86423C9 5.77081 9.01592 5.67634 9.04856 5.58923C10.2161 2.47449 13.0112 2.0547 15.2418 2.00022C15.6725 1.9897 16.0243 2.35597 15.9987 2.79943Z" fill="#59693C" stroke="black" stroke-linecap="round" stroke-linejoin="round"/>
<path d="M1.88467 1.00204C6.03255 1.27871 8.19743 3.46393 8.92614 4.86511C8.9771 4.96309 9 5.0706 9 5.17896V8.21187C9 8.67224 8.57277 9.04223 8.06879 8.99611C1.59058 8.40333 1.04541 4.52423 1.0001 1.78075C0.992727 1.33436 1.39483 0.969362 1.88467 1.00204Z" fill="#59693C" stroke="black" stroke-linecap="round" stroke-linejoin="round"/>
</svg>
