<svg width="24" height="17" viewBox="-5.5 0 24 17" fill="none" xmlns="http://www.w3.org/2000/svg">
<path d="M6.50004 16C9.51945 16 12 13.5528 12 10.4118C12 9.64068 11.9617 8.81406 11.5438 7.52935C11.1258 6.24468 11.0416 6.07885 10.5997 5.28546C10.4109 6.90453 9.40075 7.5793 9.14412 7.78097C9.14412 7.57116 8.53303 5.25096 7.6065 3.86271C6.69694 2.5 5.45994 1.60597 4.73463 1C4.73463 2.15116 4.41805 3.86271 3.96467 4.73478C3.51128 5.60684 3.42614 5.6386 2.85982 6.28758C2.29354 6.93655 2.0336 7.13699 1.56005 7.92441C1.08652 8.71187 1 9.76068 1 10.5318C1 13.6728 3.48063 16 6.50004 16Z" fill="#59693C" stroke="black" stroke-linejoin="round"/>
</svg>
