<svg width="24" height="15" viewBox="-3.5 0 24 15" fill="none" xmlns="http://www.w3.org/2000/svg">
<path d="M8.22486 1.00291C11.125 1.1723 11.2078 4.13905 10.8569 5.35862C14.3662 4.24345 15.7114 5.82329 15.9454 6.75261C16.3665 8.98277 14.2492 9.65646 13.1379 9.71451C15.3839 12.5022 14.3077 13.896 13.4888 14.2445C10.9621 14.9414 9.51163 13.141 9.10221 12.1537C7.97919 14.5232 6.06077 14.651 5.24196 14.4187C2.8556 13.7218 3.89668 11.2245 4.71553 10.063C1.3466 9.50544 0.855295 7.85608 1.03076 7.1011C1.59225 4.31342 4.54007 4.77794 5.94381 5.35862C5.38232 1.73467 7.23054 0.944832 8.22486 1.00291Z" fill="#59693C" stroke="black" stroke-linecap="round" stroke-linejoin="round"/>
<path d="M8.87506 8.5L7.37506 10.375" stroke="#F3F0E9" stroke-linecap="round" stroke-linejoin="round"/>
<path d="M6.625 8.125L8.875 8.5" stroke="#F3F0E9" stroke-linecap="round" stroke-linejoin="round"/>
<path d="M8.50006 5.875L8.87506 8.5" stroke="#F3F0E9" stroke-linecap="round" stroke-linejoin="round"/>
<path d="M11.125 7.75L8.875 8.5" stroke="#F3F0E9" stroke-linecap="round" stroke-linejoin="round"/>
<path d="M8.875 8.5L10.75 10" stroke="#F3F0E9" stroke-linecap="round" stroke-linejoin="round"/>
</svg>
