<svg width="24" height="17" viewBox="-2.5 0 24 17" fill="none" xmlns="http://www.w3.org/2000/svg">
<path d="M3 11.9024C4.25 14.0829 6.33333 15.3912 8.41667 15.8273C10.5 16.2634 12.9202 15.89 14.6667 14.519C17.1667 12.5566 18 9.28585 18 7.10537C18 4.92488 17.1667 2.52634 16.75 1.8722C16.3333 1.21805 15.5 1 15.5 1" stroke="black" stroke-linecap="round" stroke-linejoin="round"/>
<path d="M8.41787 4.05854C6.58337 4.75211 4.62662 4.05854 2.94172 5.35525C0.963308 6.87785 0.41414 9.24539 1.678 11.4066C2.66872 13.1007 4.20525 14 6.7327 14C9.26015 14 10.8459 13.2373 12.6301 11.4066C15.1575 8.81315 16 4.7069 16 3.19407C16 1.68122 14.947 0.816745 13.4726 1.03286C11.9981 1.24898 10.7652 3.17103 8.41787 4.05854Z" fill="#59693C" stroke="black" stroke-linecap="round" stroke-linejoin="round"/>
<path d="M8.97808 6.94106C8.48893 7.15448 7.96713 6.94106 7.51781 7.34008C6.99021 7.80857 6.84377 8.53702 7.18081 9.202C7.44501 9.72329 7.85473 10 8.52873 10C9.20272 10 9.6256 9.76533 10.1014 9.202C10.7753 8.40404 11 7.14057 11 6.6751C11 6.20959 10.7192 5.94359 10.326 6.01012C9.93284 6.07661 9.60404 6.66799 8.97808 6.94106Z" fill="#59693C" stroke="#F3F0E9" stroke-linecap="round" stroke-linejoin="round"/>
</svg>
