<svg width="24" height="24" viewBox="-3.5 -3.5 24 24" fill="none" xmlns="http://www.w3.org/2000/svg">
<path d="M9.21045 16V9" stroke="black" stroke-linecap="round" stroke-linejoin="round"/>
<path d="M16.2091 2.79943C15.9066 8.0374 12.6476 9.73123 9.98897 9.99658C9.56008 10.0394 9.21045 9.67533 9.21045 9.2311V5.86423C9.21045 5.77081 9.22636 5.67634 9.25901 5.58923C10.4265 2.47449 13.2216 2.0547 15.4522 2.00022C15.883 1.9897 16.2347 2.35597 16.2091 2.79943Z" fill="#59693C" stroke="black" stroke-linecap="round" stroke-linejoin="round"/>
<path d="M2.09512 1.00204C6.243 1.27871 8.40788 3.46393 9.13659 4.86511C9.18755 4.96309 9.21045 5.0706 9.21045 5.17896V8.21187C9.21045 8.67224 8.78322 9.04223 8.27924 8.99611C1.80103 8.40333 1.25586 4.52423 1.21055 1.78075C1.20318 1.33436 1.60528 0.969362 2.09512 1.00204Z" fill="#59693C" stroke="black" stroke-linecap="round" stroke-linejoin="round"/>
</svg>
