<svg width="34" height="25" viewBox="0 -1 34 25" fill="none" xmlns="http://www.w3.org/2000/svg">
<path d="M20.5648 21.7312H14.2648C10.9231 21.7312 7.71821 20.4037 5.35525 18.0407C2.99229 15.6778 1.66479 12.4729 1.66479 9.1312V1.2562H7.96479V9.1312C7.96479 10.8021 8.62854 12.4045 9.81002 13.586C10.9915 14.7675 12.5939 15.4312 14.2648 15.4312V1.2562H20.5648V8.3437H20.612C22.3383 8.12831 23.9264 7.2898 25.0778 5.9858C26.2293 4.6818 26.8647 3.00211 26.8648 1.2625H33.1648L32.6261 3.95733C32.3035 5.57026 31.6168 7.08821 30.6183 8.39539C29.6199 9.70256 28.336 10.7644 26.8648 11.5C28.2954 11.9766 29.5716 12.8291 30.5597 13.9683C31.5478 15.1074 32.2115 16.4912 32.4812 17.9748L33.1648 21.7375H26.8648C26.8647 19.9979 26.2293 18.3182 25.0778 17.0142C23.9264 15.7102 22.3383 14.8717 20.612 14.6563V21.7438L20.5648 21.7312Z" stroke="black" stroke-width="1.5" stroke-linecap="round" stroke-linejoin="round"/>
</svg>
