<svg width="23" height="25" viewBox="0 -1 23 25" fill="none" xmlns="http://www.w3.org/2000/svg">
<path d="M1.625 21.5218L3.46578 17.2824C2.05749 15.2833 1.42716 12.8389 1.6931 10.408C1.95904 7.97718 3.10296 5.72692 4.91019 4.07957C6.71741 2.43222 9.06371 1.50102 11.5087 1.46073C13.9538 1.42044 16.3295 2.27383 18.19 3.86074C20.0505 5.44766 21.268 7.65901 21.6138 10.0798C21.9597 12.5006 21.4103 14.9644 20.0686 17.0088C18.727 19.0533 16.6853 20.5378 14.3268 21.1839C11.9683 21.8299 9.45515 21.5931 7.25891 20.5177L1.625 21.5218Z" stroke="black" stroke-width="1.5" stroke-linecap="round" stroke-linejoin="round"/>
<path d="M8.31873 9.24991C8.31873 9.39786 8.37749 9.53974 8.4821 9.64435C8.58671 9.74896 8.7286 9.80773 8.87654 9.80773C9.02448 9.80773 9.16636 9.74896 9.27097 9.64435C9.37558 9.53974 9.43435 9.39786 9.43435 9.24991V8.13429C9.43435 7.98635 9.37558 7.84447 9.27097 7.73986C9.16636 7.63525 9.02448 7.57648 8.87654 7.57648C8.7286 7.57648 8.58671 7.63525 8.4821 7.73986C8.37749 7.84447 8.31873 7.98635 8.31873 8.13429V9.24991ZM8.31873 9.24991C8.31873 10.7293 8.90642 12.1481 9.95252 13.1942C10.9986 14.2403 12.4174 14.828 13.8968 14.828M13.8968 14.828H15.0125C15.1604 14.828 15.3023 14.7693 15.4069 14.6647C15.5115 14.56 15.5703 14.4182 15.5703 14.2702C15.5703 14.1223 15.5115 13.9804 15.4069 13.8758C15.3023 13.7712 15.1604 13.7124 15.0125 13.7124H13.8968C13.7489 13.7124 13.607 13.7712 13.5024 13.8758C13.3978 13.9804 13.339 14.1223 13.339 14.2702C13.339 14.4182 13.3978 14.56 13.5024 14.6647C13.607 14.7693 13.7489 14.828 13.8968 14.828Z" stroke="black" stroke-width="1.5" stroke-linecap="round" stroke-linejoin="round"/>
</svg>
