<svg width="23" height="25" viewBox="0 -1 23 25" fill="none" xmlns="http://www.w3.org/2000/svg">
<path d="M1.71484 6.5125C1.71484 5.18973 2.24031 3.92114 3.17565 2.98581C4.11099 2.05047 5.37958 1.525 6.70234 1.525H16.6773C18.0001 1.525 19.2687 2.05047 20.204 2.98581C21.1394 3.92114 21.6648 5.18973 21.6648 6.5125V16.4875C21.6648 17.8103 21.1394 19.0789 20.204 20.0142C19.2687 20.9495 18.0001 21.475 16.6773 21.475H6.70234C5.37958 21.475 4.11099 20.9495 3.17565 20.0142C2.24031 19.0789 1.71484 17.8103 1.71484 16.4875V6.5125Z" stroke="black" stroke-width="1.5" stroke-linecap="round" stroke-linejoin="round"/>
<path d="M7.9491 11.5C7.9491 12.4921 8.3432 13.4435 9.0447 14.145C9.7462 14.8465 10.6976 15.2406 11.6897 15.2406C12.6818 15.2406 13.6332 14.8465 14.3347 14.145C15.0362 13.4435 15.4303 12.4921 15.4303 11.5C15.4303 10.5079 15.0362 9.55647 14.3347 8.85497C13.6332 8.15347 12.6818 7.75937 11.6897 7.75937C10.6976 7.75937 9.7462 8.15347 9.0447 8.85497C8.3432 9.55647 7.9491 10.5079 7.9491 11.5Z" stroke="black" stroke-width="1.5" stroke-linecap="round" stroke-linejoin="round"/>
<path d="M17.3007 5.88905V5.90283" stroke="black" stroke-width="1.5" stroke-linecap="round" stroke-linejoin="round"/>
</svg>
