<svg width="24" height="24" viewBox="-3 -3 24 24" fill="none" xmlns="http://www.w3.org/2000/svg">
<path d="M9 17.0001C13.4183 17.0001 17 14.0452 17 10.4001C17 7.82327 15.2101 5.68067 12.6 4.59375L11.2 5.20007L11.4 7.40007L8.8 6.60007L6.2 7.40007V5.20007L5 4.59375C2.6088 5.73491 1 7.95715 1 10.4001C1 14.0452 4.58172 17.0001 9 17.0001Z" fill="#59693C" stroke="black" stroke-linecap="round" stroke-linejoin="round"/>
<path d="M8.79993 1L10.3234 3.04669L13.7999 3.36393L11.265 5.19332L11.9999 7.8L8.79993 6.6L5.59993 7.8L6.33477 5.19332L3.79993 3.36393L7.27637 3.04669L8.79993 1Z" stroke="black" stroke-linecap="round" stroke-linejoin="round"/>
</svg>
